<svg xmlns="http://www.w3.org/2000/svg" width="21" height="16" viewBox="0 0 21 16" fill="none">
<path d="M19.0706 1.88042L20.7121 0.337684V0H15.0258L10.9732 9.90989L6.36263 0H0.400339V0.337684L2.31777 2.60547C2.50463 2.77305 2.60234 3.01811 2.57748 3.26484V12.1768C2.63663 12.4977 2.53034 12.8278 2.30063 13.0611L0.140625 15.6328V15.9663H6.26491V15.6286L4.10491 13.0611C3.87091 12.8269 3.76034 12.5027 3.80748 12.1768V4.46821L9.18348 15.9705H9.80834L14.4309 4.46821V13.6312C14.4309 13.8728 14.4309 13.9225 14.2698 14.0808L12.6069 15.6615V16H20.6743V15.6623L19.0715 14.1204C18.9309 14.016 18.8581 13.8408 18.8881 13.6707V2.33011C18.8581 2.15916 18.9301 1.984 19.0706 1.88042Z" fill="#FFF"/>
</svg>