<svg xmlns="http://www.w3.org/2000/svg" width="23" height="19" viewBox="0 0 23 19" fill="none">
<path fill-rule="evenodd" clip-rule="evenodd" d="M17.4305 18.6426C17.7257 18.8516 18.1061 18.9039 18.4452 18.7755C18.7844 18.6463 19.0337 18.3566 19.1089 18.0055C19.9055 14.2619 21.8378 4.78627 22.5629 1.38085C22.6179 1.12419 22.5262 0.857438 22.3246 0.686021C22.1229 0.514605 21.8433 0.465105 21.594 0.557688C17.7504 1.98035 5.91349 6.4216 1.07532 8.21185C0.76824 8.32552 0.568406 8.62069 0.57849 8.94427C0.58949 9.26877 0.807656 9.55019 1.12207 9.6446C3.29182 10.2936 6.13991 11.1965 6.13991 11.1965C6.13991 11.1965 7.47091 15.2161 8.16482 17.2603C8.25191 17.5169 8.45266 17.7186 8.71757 17.7883C8.98157 17.857 9.26391 17.7846 9.46099 17.5985C10.5757 16.5462 12.299 14.9191 12.299 14.9191C12.299 14.9191 15.5733 17.3199 17.4305 18.6426ZM7.33799 10.6887L8.87707 15.7652L9.21899 12.5504C9.21899 12.5504 15.1654 7.18702 18.5552 4.12994C18.6542 4.0401 18.668 3.88977 18.5855 3.78435C18.5039 3.67894 18.3536 3.65419 18.2408 3.72569C14.312 6.2346 7.33799 10.6887 7.33799 10.6887Z" fill="white"/>
</svg>
