<svg xmlns="http://www.w3.org/2000/svg" width="22" height="18" viewBox="0 0 22 18" fill="none">
<path d="M21.577 2.24546C20.8033 2.58828 19.9722 2.81991 19.0985 2.92461C20 2.38518 20.6745 1.53617 20.996 0.536005C20.149 1.0391 19.222 1.39323 18.2553 1.58299C17.6053 0.88889 16.7442 0.428829 15.8059 0.274235C14.8675 0.119641 13.9044 0.279162 13.066 0.728032C12.2277 1.1769 11.5609 1.89001 11.1693 2.75664C10.7778 3.62326 10.6833 4.59492 10.9005 5.52076C9.18427 5.43459 7.50534 4.98852 5.97266 4.21148C4.43998 3.43445 3.08781 2.34382 2.00391 1.01039C1.6333 1.6497 1.4202 2.39093 1.4202 3.18034C1.41978 3.89098 1.59479 4.59075 1.92968 5.21754C2.26457 5.84433 2.749 6.37877 3.33998 6.77344C2.6546 6.75163 1.98434 6.56644 1.38499 6.23327V6.28886C1.38492 7.28557 1.72969 8.25161 2.3608 9.02306C2.99191 9.79451 3.87049 10.3239 4.84745 10.5213C4.21165 10.6933 3.54506 10.7187 2.89802 10.5954C3.17366 11.453 3.71059 12.203 4.43363 12.7403C5.15667 13.2776 6.02963 13.5753 6.9303 13.5918C5.40136 14.7921 3.51314 15.4431 1.56937 15.4402C1.22505 15.4403 0.881025 15.4202 0.539062 15.38C2.5121 16.6486 4.80885 17.3219 7.15452 17.3193C15.0949 17.3193 19.4357 10.7427 19.4357 5.03897C19.4357 4.85366 19.4311 4.6665 19.4228 4.48119C20.2671 3.87058 20.9959 3.11446 21.5751 2.24824L21.577 2.24546Z" fill="white"/>
</svg>