<svg xmlns="http://www.w3.org/2000/svg" width="20" height="20" viewBox="0 0 20 20" fill="none">
<path d="M13.8285 11.6419C13.9026 11.0303 13.9582 10.4188 13.9582 9.78879C13.9582 9.15874 13.9026 8.54723 13.8285 7.93572H16.9602C17.1084 8.5287 17.2011 9.14948 17.2011 9.78879C17.2011 10.4281 17.1084 11.0489 16.9602 11.6419H13.8285ZM12.1885 16.7934C12.7444 15.7649 13.1706 14.6531 13.4671 13.4949H16.2004C15.3028 15.0406 13.8786 16.2115 12.1885 16.7934ZM11.9569 11.6419H7.6207C7.52804 11.0303 7.47245 10.4188 7.47245 9.78879C7.47245 9.15874 7.52804 8.53797 7.6207 7.93572H11.9569C12.0403 8.53797 12.1051 9.15874 12.1051 9.78879C12.1051 10.4188 12.0403 11.0303 11.9569 11.6419ZM9.78879 17.164C9.01976 16.0522 8.39899 14.8199 8.01911 13.4949H11.5585C11.1786 14.8199 10.5578 16.0522 9.78879 17.164ZM6.08265 6.08265H3.37717C4.26558 4.53275 5.68868 3.36001 7.3798 2.78418C6.82388 3.81264 6.40694 4.92448 6.08265 6.08265ZM3.37717 13.4949H6.08265C6.40694 14.6531 6.82388 15.7649 7.3798 16.7934C5.69223 16.2112 4.27113 15.0401 3.37717 13.4949ZM2.61741 11.6419C2.46916 11.0489 2.37651 10.4281 2.37651 9.78879C2.37651 9.14948 2.46916 8.5287 2.61741 7.93572H5.7491C5.67497 8.54723 5.61938 9.15874 5.61938 9.78879C5.61938 10.4188 5.67497 11.0303 5.7491 11.6419H2.61741ZM9.78879 2.4043C10.5578 3.51615 11.1786 4.7577 11.5585 6.08265H8.01911C8.39899 4.7577 9.01976 3.51615 9.78879 2.4043ZM16.2004 6.08265H13.4671C13.1771 4.9351 12.7477 3.82737 12.1885 2.78418C13.8933 3.3679 15.3109 4.5446 16.2004 6.08265ZM9.78879 0.523438C4.66505 0.523438 0.523438 4.69285 0.523438 9.78879C0.523438 12.2461 1.49961 14.6028 3.2372 16.3404C4.09756 17.2007 5.11897 17.8832 6.24309 18.3489C7.36722 18.8145 8.57205 19.0541 9.78879 19.0541C12.2461 19.0541 14.6028 18.078 16.3404 16.3404C18.078 14.6028 19.0541 12.2461 19.0541 9.78879C19.0541 8.57205 18.8145 7.36722 18.3489 6.24309C17.8832 5.11897 17.2007 4.09756 16.3404 3.2372C15.48 2.37683 14.4586 1.69435 13.3345 1.22872C12.2104 0.763093 11.0055 0.523438 9.78879 0.523438Z" fill="white"/>
</svg>